<svg id="Layer_1" data-name="Layer 1" xmlns="http://www.w3.org/2000/svg" viewBox="0 0 10 125.77"><defs><style>.cls-1{fill:none;stroke:gray;stroke-miterlimit:10;}.cls-2{fill:gray;}</style></defs><line id="line2" class="cls-1" x1="5" y1="99.23" x2="5" y2="116.15"/><line id="line1" class="cls-1" x1="5" y1="9.62" x2="5" y2="90"/><g id="circle3"><path class="cls-2" d="M33.68,297.27a4,4,0,1,1-4,4,4,4,0,0,1,4-4m0-1a5,5,0,1,0,5,5,5,5,0,0,0-5-5Z" transform="translate(-28.68 -180.5)"/></g><g id="circle2"><path class="cls-2" d="M33.68,271.12a4,4,0,1,1-4,4,4,4,0,0,1,4-4m0-1a5,5,0,1,0,5,5,5,5,0,0,0-5-5Z" transform="translate(-28.68 -180.5)"/></g><g id="circle1"><circle class="cls-2" cx="5" cy="5" r="4.5"/><path class="cls-2" d="M33.68,181.5a4,4,0,1,1-4,4,4,4,0,0,1,4-4m0-1a5,5,0,1,0,5,5,5,5,0,0,0-5-5Z" transform="translate(-28.68 -180.5)"/></g></svg>